<?xml version="1.0" encoding="utf-8"?>
<!-- Generator: Adobe Illustrator 21.0.0, SVG Export Plug-In . SVG Version: 6.00 Build 0)  -->
<svg version="1.1" id="Laag_1" xmlns="http://www.w3.org/2000/svg" xmlns:xlink="http://www.w3.org/1999/xlink" x="0px" y="0px"
	 viewBox="0 0 332 49" style="enable-background:new 0 0 332 49;" xml:space="preserve">
<style type="text/css">
	.st0{enable-background:new    ;}
	.st1{fill:#E50303;}
</style>
<title>jp-logo-one-line</title>
<g class="st0">
	<path d="M93.3,37.3V11.1h4.2v11.2l6.3-11.2h5.2l-6.3,10.3l7.3,15.9h-5.2l-5.2-12.2l-2.1,3.7v8.4h-4.2V37.3z"/>
	<path d="M111.6,37.3V11.1h11.5v2.8h-7.3v8.4h5.2v2.8h-5.2v9.3h7.3v2.8h-11.5V37.3z"/>
	<path d="M125.6,37.3V11.1h3.1l7.3,16.2V11.1h4.2v26.2h-3l-7.5-17.4v17.4C129.7,37.3,125.6,37.3,125.6,37.3z"/>
</g>
<g class="st0">
	<path d="M147.6,37.3V14.4h-5.2v-3.3H157v3.3h-5.2v22.8h-4.2V37.3z"/>
</g>
<g class="st0">
	<path d="M156.8,37.3l6.3-26.2h4.2l6.3,26.2h-4.2l-1.6-6.5h-5.2l-1.6,6.5H156.8z M163.1,27.9h4.2l-2.1-11.2L163.1,27.9z"/>
</g>
<g class="st0">
	<path d="M185.9,37.3V14.4h-5.2v-3.3h14.7v3.3h-5.2v22.8h-4.3V37.3z"/>
</g>
<g class="st0">
	<path d="M195.1,37.3l6.3-26.2h4.2l6.3,26.2h-4.2l-1.6-6.5h-5.2l-1.6,6.5H195.1z M201.4,27.9h4.2l-2.1-11.2L201.4,27.9z"/>
	<path d="M214.2,37.3V11.1h4.2v11.2l6.3-11.2h5.2l-6.3,10.3l7.3,15.9h-5.2l-5.2-12.2l-2.1,3.7v8.4h-4.2V37.3z"/>
	<path d="M232.5,37.3V11.1H244v2.8h-7.3v8.4h5.2v2.8h-5.2v9.3h7.3v2.8h-11.5V37.3z"/>
	<path d="M254.2,37.5c-2.6,0-4.7-0.7-6-2.1c-1.4-1.4-2.2-3.3-2.3-5.7l4.2-0.9c0.2,3.7,1.6,5.6,4.2,5.6c2.1,0,3.1-0.9,3.1-2.8
		c0-0.6-0.1-1.1-0.3-1.5c-0.2-0.5-0.4-0.9-0.8-1.3c-0.3-0.4-0.7-0.7-0.9-0.9c-0.3-0.2-0.7-0.5-1.2-0.9l-5.2-3.7
		c-1-0.7-1.7-1.5-2.3-2.6c-0.6-1-0.9-2.2-0.9-3.5c0-1.9,0.7-3.5,2-4.6s3.1-1.7,5.3-1.7c2.4,0,4.3,0.5,5.7,1.6c1.4,1,2.3,2.5,2.6,4.4
		c0,0.2,0.1,0.5,0.1,0.8l-4.2,0.9c0-0.2,0-0.4-0.1-0.7c-0.2-1.2-0.6-2.1-1.3-2.9c-0.6-0.7-1.6-1.1-2.9-1.1c-1,0-1.8,0.3-2.3,0.8
		s-0.8,1.2-0.8,2.1c0,1.5,0.7,2.7,2.1,3.7l5.2,3.7c2.8,2,4.2,4.4,4.2,7.2c0,1.9-0.7,3.4-2,4.5C258.2,37,256.5,37.5,254.2,37.5z"/>
	<path d="M264.6,37.3V11.1h4.2v11.2h7.3V11.1h4.2v26.2h-4.2V25.1h-7.3v12.2H264.6z"/>
	<path d="M284.7,37.3V11.1h4.2v26.2C288.9,37.3,284.7,37.3,284.7,37.3z"/>
	<path d="M301.2,37.5c-1.3,0-2.5-0.2-3.5-0.5s-1.8-0.8-2.4-1.4s-1.1-1.3-1.5-2.2s-0.6-1.9-0.8-2.9c-0.1-1-0.2-2.2-0.2-3.5v-6.6
		c0-6.4,2.8-9.6,8.5-9.6c1.4,0,2.5,0.2,3.5,0.5c1,0.4,1.8,0.9,2.4,1.6c0.6,0.7,1.1,1.5,1.4,2.5c0.3,0.9,0.5,2,0.6,3.3
		c0,0.2,0,0.4,0,0.8H305v-0.8c0-0.6,0-1.1-0.1-1.6c-0.1-0.4-0.2-0.9-0.3-1.3c-0.2-0.4-0.4-0.8-0.6-1c-0.3-0.3-0.6-0.5-1.1-0.6
		s-1-0.2-1.6-0.2c-0.9,0-1.6,0.1-2.2,0.4c-0.6,0.3-1,0.7-1.3,1.2c-0.3,0.5-0.5,1.1-0.7,1.8s-0.2,1.4-0.2,2.2V28c0,0.6,0,1.2,0.1,1.7
		c0,0.5,0.1,1,0.2,1.5s0.3,1,0.5,1.4s0.5,0.7,0.8,1s0.7,0.5,1.1,0.7c0.5,0.2,1,0.2,1.6,0.2c0.7,0,1.3-0.1,1.8-0.4
		c0.5-0.2,0.9-0.6,1.2-0.9c0.3-0.4,0.5-0.9,0.7-1.5c0.2-0.6,0.3-1.2,0.4-1.8c0.1-0.6,0.1-1.3,0.1-2V27h-4.2v-2.8h8.4v13.1h-3.1
		l-1-2.8C304.6,36.5,303.2,37.5,301.2,37.5z"/>
	<path d="M313,37.3V11.1h11.5v2.8h-7.3v8.4h5.2v2.8h-5.2v9.3h7.3v2.8H313V37.3z"/>
</g>
<g class="st0">
	<path class="st1" d="M17,20.5l-2.6,0.1c-2.3,3.4-4.6,6-5.4,6c-0.1,0-0.3-0.1-0.3-0.3c0-0.2,0.1-0.6,0.5-1c1.1-1.6,7.3-11,7.5-15.4
		c0-0.3,0.1-0.4,0.4-0.4c0.8,0,2.4,1.2,2.4,1.9c0,0.4-1.8,3.9-3.6,7l6.5-0.4c0.4,0,1-0.1,1.5-0.3c0.1,0,0.1,0,0.2,0
		c0.8,0,2,1.3,2,1.8c0,0.4-0.4,0.5-0.8,0.6l-5.9,0.3l-0.3,19.1c0,0.6-0.2,0.8-0.6,0.8c-0.2,0-0.6-0.1-1-0.3c-0.7-0.3-1-0.7-1-1.2
		c0-0.1,0-0.3,0.1-0.5c0.1-0.6,0.2-1.4,0.2-2.1L17,20.5z M33,19.5l-4.1,0.2c-2.2,3.4-5.2,6.9-6.1,6.9c-0.2,0-0.3-0.1-0.3-0.3
		c0-0.2,0.1-0.6,0.4-1c4.8-6.3,7.4-13.3,7.4-15.7c0-0.1,0-0.3,0-0.5V9c0-0.2,0.2-0.3,0.4-0.3c0.7,0,2.5,0.8,2.5,1.8v0.1
		c-0.8,2.5-1.9,4.9-3.1,7l8.7-0.6c0.4,0,0.8-0.1,1.3-0.3c0.1,0,0.2,0,0.3,0c0.6,0,2,1.2,2,1.8c0,0.4-0.4,0.5-0.8,0.5l-6.2,0.3v18.5
		c0,0.5,0.1,0.9,0.1,1.3c0,0.9-0.8,1.9-1.7,1.9C32.2,41,27,37,27,36c0-0.1,0.1-0.2,0.3-0.2c0.2,0,0.6,0.1,1.1,0.4
		c1.8,0.9,3.2,1.4,4.7,1.8L33,19.5z"/>
	<path class="st1" d="M49,39.9c-0.3,0-0.6,0-0.8,0c-0.7,0-1.2-0.1-1.5-0.4c-0.3-0.4-0.6-1-0.8-1.4c0-0.1,0-0.1,0-0.2
		c0-0.1,0.1-0.3,0.3-0.3c0,0,0.1,0,0.2,0c0.6,0.2,1.4,0.2,2.1,0.2l12.5-0.3v-3.2l-7.4,0.3h-0.8c-0.5,0-0.8-0.1-1-0.3
		c-1-1-1-1.5-1-1.7s0.1-0.3,0.3-0.3c0.1,0,0.1,0,0.3,0c0.5,0.1,1,0.2,1.6,0.2h0.3l7.8-0.3v-2.7l-5.7,0.2l0,0.4v0.1
		c0,0.4-0.2,0.6-0.6,0.6c-0.2,0-0.5-0.1-0.9-0.2c-0.8-0.4-1-0.6-1-1.1c0-0.1,0-0.2,0-0.3c0-0.3,0.1-0.7,0.1-1.1c0-0.2,0-0.4,0-0.6
		l-0.6-6c-0.1-0.7-0.2-1.2-0.5-1.8c-0.1-0.3-0.2-0.5-0.2-0.7c0-0.1,0.1-0.2,0.4-0.2c0.4,0,1.1,0.2,2.5,0.6l6.6-0.4v-2.5l-10.6,0.6
		c-0.4,0-0.8,0.1-1.1,0.1c-0.4,0-0.8-0.1-1-0.3c-0.4-0.4-0.8-0.8-1-1.2c0-0.1-0.1-0.2-0.1-0.3c0-0.1,0.1-0.2,0.3-0.2h0.1
		c0.4,0.1,1,0.1,1.5,0.1h0.4L61,14.9v-2.2c-2.9,0.4-5.7,0.4-8.7,0.6H52c-0.8,0-1.2-0.2-1.2-0.4c0-0.3,0.5-0.6,1.4-0.7
		c5.7-0.7,11.8-1.8,16.4-3.1c0.5-0.1,1-0.4,1.5-0.8C70.3,8.1,70.4,8,70.5,8c0.7,0,1.9,1.7,1.9,2.2c0,0.3-0.2,0.4-0.5,0.5
		c-3,0.7-5.9,1.3-8.7,1.7v2.4l10.5-0.6c0.4,0,1-0.1,1.5-0.3c0.1,0,0.1,0,0.2,0c0.3,0,1.8,1,1.8,1.6c0,0.3-0.3,0.4-0.8,0.4l-13.3,0.7
		v2.6l7.6-0.4h0.3c1.3,0,1.7,1.1,1.7,1.4c0,0.3-0.2,0.5-0.2,0.8l-0.9,6.7c0.6,0.7,0.8,1.1,0.8,1.4c0,0.3-0.4,0.3-1,0.3l-8.4,0.3v2.7
		l7-0.3c0.5-0.1,0.8-0.1,1.3-0.3c0.1,0,0.3-0.1,0.4-0.1c0.4,0,1.9,1,1.9,1.7c0,0.3-0.4,0.4-1,0.5l-9.5,0.4l0,3.2l11.8-0.3
		c0.7,0,1.2-0.1,1.8-0.3c0.2,0,0.3-0.1,0.4-0.1c0.7,0,1.8,1.4,1.8,1.9c0,0.3-0.3,0.4-0.7,0.4L49,39.9z M61,21.2l-6.6,0.3l0.2,2.5
		l6.4-0.3V21.2z M61,25.4l-6.2,0.3l0.2,2.7l5.9-0.3V25.4z M70.2,20.7L63.2,21l0,2.5l6.7-0.3L70.2,20.7z M69.8,25l-6.6,0.3V28
		l6.4-0.3L69.8,25z"/>
</g>
</svg>
